<?xml version="1.0" encoding="UTF-8" standalone="no"?>
<svg
   xmlns:dc="http://purl.org/dc/elements/1.1/"
   xmlns:cc="http://creativecommons.org/ns#"
   xmlns:rdf="http://www.w3.org/1999/02/22-rdf-syntax-ns#"
   xmlns:svg="http://www.w3.org/2000/svg"
   xmlns="http://www.w3.org/2000/svg"
   xmlns:sodipodi="http://sodipodi.sourceforge.net/DTD/sodipodi-0.dtd"
   xmlns:inkscape="http://www.inkscape.org/namespaces/inkscape"
   width="158mm"
   height="85mm"
   viewBox="0 0 15800 8500"
   version="1.1"
   stroke-width="28.222"
   stroke-linejoin="round"
   xml:space="preserve"
   id="svg234"
   sodipodi:docname="graph_caps_start.svg"
   inkscape:version="0.92.3 (2405546, 2018-03-11)"><metadata
   id="metadata240"><rdf:RDF><cc:Work
       rdf:about=""><dc:format>image/svg+xml</dc:format><dc:type
         rdf:resource="http://purl.org/dc/dcmitype/StillImage" /><dc:title></dc:title></cc:Work></rdf:RDF></metadata><defs
   id="defs238" /><sodipodi:namedview
   pagecolor="#ffffff"
   bordercolor="#666666"
   borderopacity="1"
   objecttolerance="10"
   gridtolerance="10"
   guidetolerance="10"
   inkscape:pageopacity="0"
   inkscape:pageshadow="2"
   inkscape:window-width="1920"
   inkscape:window-height="1137"
   id="namedview236"
   showgrid="false"
   inkscape:zoom="1"
   inkscape:cx="295.84279"
   inkscape:cy="221.1482"
   inkscape:window-x="-8"
   inkscape:window-y="-8"
   inkscape:window-maximized="1"
   inkscape:current-layer="svg234" />
 <path
   fill="rgb(255,255,255)"
   stroke="none"
   d="M 7892,8471 L 0,8471 0,0 15784,0 15784,8471 7892,8471 Z"
   id="path2" />
 <path
   fill="none"
   stroke="rgb(179,179,179)"
   stroke-linejoin="round"
   d="M 8174,6699 L 2142,6699 2142,364 14206,364 14206,6699 8174,6699 Z"
   id="path4" />
 <path
   fill="none"
   stroke="rgb(179,179,179)"
   stroke-linejoin="round"
   d="M 2142,362 L 2142,6698"
   id="path6" />
 <path
   fill="none"
   stroke="rgb(179,179,179)"
   stroke-linejoin="round"
   d="M 4555,362 L 4555,6698"
   id="path8" />
 <path
   fill="none"
   stroke="rgb(179,179,179)"
   stroke-linejoin="round"
   d="M 6968,362 L 6968,6698"
   id="path10" />
 <path
   fill="none"
   stroke="rgb(179,179,179)"
   stroke-linejoin="round"
   d="M 9380,362 L 9380,6698"
   id="path12" />
 <path
   fill="none"
   stroke="rgb(179,179,179)"
   stroke-linejoin="round"
   d="M 11793,362 L 11793,6698"
   id="path14" />
 <path
   fill="none"
   stroke="rgb(179,179,179)"
   stroke-linejoin="round"
   d="M 14206,362 L 14206,6698"
   id="path16" />
 <path
   fill="none"
   stroke="rgb(179,179,179)"
   stroke-linejoin="round"
   d="M 14206,6698 L 2142,6698"
   id="path18" />
 <path
   fill="none"
   stroke="rgb(179,179,179)"
   stroke-linejoin="round"
   d="M 14206,5792 L 2142,5792"
   id="path20" />
 <path
   fill="none"
   stroke="rgb(179,179,179)"
   stroke-linejoin="round"
   d="M 14206,4887 L 2142,4887"
   id="path22" />
 <path
   fill="none"
   stroke="rgb(179,179,179)"
   stroke-linejoin="round"
   d="M 14206,3983 L 2142,3983"
   id="path24" />
 <path
   fill="none"
   stroke="rgb(179,179,179)"
   stroke-linejoin="round"
   d="M 14206,3078 L 2142,3078"
   id="path26" />
 <path
   fill="none"
   stroke="rgb(179,179,179)"
   stroke-linejoin="round"
   d="M 14206,2173 L 2142,2173"
   id="path28" />
 <path
   fill="none"
   stroke="rgb(179,179,179)"
   stroke-linejoin="round"
   d="M 14206,1268 L 2142,1268"
   id="path30" />
 <path
   fill="none"
   stroke="rgb(179,179,179)"
   stroke-linejoin="round"
   d="M 14206,362 L 2142,362"
   id="path32" />
 <path
   fill="none"
   stroke="rgb(179,179,179)"
   stroke-linejoin="round"
   d="M 2142,6848 L 2142,6698"
   id="path34" />
 <path
   fill="none"
   stroke="rgb(179,179,179)"
   stroke-linejoin="round"
   d="M 2142,6848 L 2142,6698"
   id="path36" />
 <path
   fill="none"
   stroke="rgb(179,179,179)"
   stroke-linejoin="round"
   d="M 4555,6848 L 4555,6698"
   id="path38" />
 <path
   fill="none"
   stroke="rgb(179,179,179)"
   stroke-linejoin="round"
   d="M 4555,6848 L 4555,6698"
   id="path40" />
 <path
   fill="none"
   stroke="rgb(179,179,179)"
   stroke-linejoin="round"
   d="M 6968,6848 L 6968,6698"
   id="path42" />
 <path
   fill="none"
   stroke="rgb(179,179,179)"
   stroke-linejoin="round"
   d="M 6968,6848 L 6968,6698"
   id="path44" />
 <path
   fill="none"
   stroke="rgb(179,179,179)"
   stroke-linejoin="round"
   d="M 9380,6848 L 9380,6698"
   id="path46" />
 <path
   fill="none"
   stroke="rgb(179,179,179)"
   stroke-linejoin="round"
   d="M 9380,6848 L 9380,6698"
   id="path48" />
 <path
   fill="none"
   stroke="rgb(179,179,179)"
   stroke-linejoin="round"
   d="M 11793,6848 L 11793,6698"
   id="path50" />
 <path
   fill="none"
   stroke="rgb(179,179,179)"
   stroke-linejoin="round"
   d="M 11793,6848 L 11793,6698"
   id="path52" />
 <path
   fill="none"
   stroke="rgb(179,179,179)"
   stroke-linejoin="round"
   d="M 14206,6848 L 14206,6698"
   id="path54" />
 <path
   fill="none"
   stroke="rgb(179,179,179)"
   stroke-linejoin="round"
   d="M 14206,6848 L 14206,6698"
   id="path56" />
 <path
   fill="none"
   stroke="rgb(179,179,179)"
   stroke-linejoin="round"
   d="M 2142,6698 L 14206,6698"
   id="path58" />
 <path
   fill="none"
   stroke="rgb(179,179,179)"
   stroke-linejoin="round"
   d="M 1992,6698 L 2142,6698"
   id="path60" />
 <path
   fill="none"
   stroke="rgb(179,179,179)"
   stroke-linejoin="round"
   d="M 1992,6698 L 2142,6698"
   id="path62" />
 <path
   fill="none"
   stroke="rgb(179,179,179)"
   stroke-linejoin="round"
   d="M 1992,5792 L 2142,5792"
   id="path64" />
 <path
   fill="none"
   stroke="rgb(179,179,179)"
   stroke-linejoin="round"
   d="M 1992,5792 L 2142,5792"
   id="path66" />
 <path
   fill="none"
   stroke="rgb(179,179,179)"
   stroke-linejoin="round"
   d="M 1992,4887 L 2142,4887"
   id="path68" />
 <path
   fill="none"
   stroke="rgb(179,179,179)"
   stroke-linejoin="round"
   d="M 1992,4887 L 2142,4887"
   id="path70" />
 <path
   fill="none"
   stroke="rgb(179,179,179)"
   stroke-linejoin="round"
   d="M 1992,3983 L 2142,3983"
   id="path72" />
 <path
   fill="none"
   stroke="rgb(179,179,179)"
   stroke-linejoin="round"
   d="M 1992,3983 L 2142,3983"
   id="path74" />
 <path
   fill="none"
   stroke="rgb(179,179,179)"
   stroke-linejoin="round"
   d="M 1992,3078 L 2142,3078"
   id="path76" />
 <path
   fill="none"
   stroke="rgb(179,179,179)"
   stroke-linejoin="round"
   d="M 1992,3078 L 2142,3078"
   id="path78" />
 <path
   fill="none"
   stroke="rgb(179,179,179)"
   stroke-linejoin="round"
   d="M 1992,2173 L 2142,2173"
   id="path80" />
 <path
   fill="none"
   stroke="rgb(179,179,179)"
   stroke-linejoin="round"
   d="M 1992,2173 L 2142,2173"
   id="path82" />
 <path
   fill="none"
   stroke="rgb(179,179,179)"
   stroke-linejoin="round"
   d="M 1992,1268 L 2142,1268"
   id="path84" />
 <path
   fill="none"
   stroke="rgb(179,179,179)"
   stroke-linejoin="round"
   d="M 1992,1268 L 2142,1268"
   id="path86" />
 <path
   fill="none"
   stroke="rgb(179,179,179)"
   stroke-linejoin="round"
   d="M 1992,362 L 2142,362"
   id="path88" />
 <path
   fill="none"
   stroke="rgb(179,179,179)"
   stroke-linejoin="round"
   d="M 1992,362 L 2142,362"
   id="path90" />
 <path
   fill="none"
   stroke="rgb(179,179,179)"
   stroke-linejoin="round"
   d="M 2142,6698 L 2142,362"
   id="path92" />
 <path
   fill="none"
   stroke="rgb(0,69,134)"
   stroke-width="80"
   stroke-linejoin="round"
   d="M 2190,1025 L 2238,1221 2286,1229 2335,1250 2383,1279 2431,1354 2479,1525 2528,1708 2576,1938 2624,2164 2672,2359 2721,2540 2769,2716 2817,2902 2865,3086 2914,3296 2962,3499 3010,3637 3058,3788 3107,3922 3155,4025 3203,4189 3251,4305 3300,4413 3348,4506 3396,4597 3445,4707 3493,4758 3541,4872 3589,4916 3638,4985 3686,5108 3734,5144 3782,5176 3831,5238 3879,5257 3927,5247 3975,5247 4024,4806 4072,4819 4120,5402 4168,5482 4217,5482 4265,5388 4313,5432 4361,5402 4410,5402 4458,5501 4506,5540 4555,5520 4603,5448 4651,5501 4699,5432 4748,5465 4796,5432 4844,5465 4892,5448 4941,5465 4989,5311 5037,5465 5085,5374 5134,5448 5182,5432 5230,5482 5278,5501 5327,5501 5375,5561 5423,5584 5471,5584 5520,5482 5568,5608 5616,5465 5664,5465 5713,5520 5761,5482 5809,5520 5858,5561 5906,5520 5954,5432 6002,5540 6051,5520 6099,5137 6147,5144 6195,5584 6244,5561 6292,5689 6340,5584 6388,5584 6437,5520 6485,5689 6533,5721 6581,5660 6630,5584 6678,5633 6726,5633 6774,5540 6823,5501 6871,5633 6919,5608 6968,5501 7016,5540 7064,5633 7112,5520 7161,5689 7209,5520 7257,5608 7305,5501 7354,5520 7402,5792 7450,5608 7498,5633 7547,5755 7595,5633 7643,5520 7691,5520 7740,5834 7788,5660 7836,5660 7884,5633 7932,5792 7980,5721 8028,5755 8076,5689 8125,5584 8173,5755 8221,5608 8270,5633 8318,5721 8366,5755 8414,5660 8463,5584 8511,5660 8559,5584 8607,5129 8656,5129 8704,5137 8752,5561 8800,5660 8849,5660 8897,5933 8945,5755 8993,5755 9042,5792 9090,5689 9138,5689 9186,5721 9235,5561 9283,5792 9331,5755 9380,5160 9428,5660 9476,5755 9524,5689 9573,5933 9621,5755 9669,5834 9717,5755 9766,4975 9814,5289 9862,5289 9910,5335 9959,6065 10007,5633 10055,5880 10103,5993 10152,5933 10200,5993 10248,5993 10296,5993 10345,5933 10393,5993 10441,5993 10489,6065 10538,5608 10586,5608 10634,5660 10683,5933 10731,5933 10779,6065 10827,6065 10876,6153 10924,6266 10972,5993 11020,6425 11069,6266 11117,6425 11165,6266 11213,6425 11262,6425 11310,6425 11358,6698 11406,6698 11455,6698 11503,6266 11551,6425 11599,6425 11648,6425 11696,6698 11744,6425 11793,6698 11841,6266 11889,6698 11937,6425 11986,6698 12034,6698 12082,6425 12130,6698 12179,6425 12227,6698 12275,6425 12323,6698 12372,6698 12420,6425 12468,6698 12516,6698 12565,6425 12613,6425 12661,6698 12709,6698 12758,6698 12806,6698"
   id="path94" />
 <path
   fill="none"
   stroke="rgb(237,28,36)"
   stroke-width="51"
   stroke-linejoin="round"
   stroke-dasharray="100,65"
   d="M 2190,572 L 2312,1953 2434,2544 2556,2926 2678,3209 2800,3433 2922,3620 3044,3779 3166,3917 3288,4041 3410,4151 3532,4251 3654,4343 3776,4428 3898,4507 4020,4580 4142,4649 4264,4714 4386,4775 4508,4833 4630,4888 4753,4941 4875,4991 4997,5039 5119,5084 5241,5128 5363,5171 5485,5211 5607,5251 5729,5288 5851,5325 5973,5361 6095,5395 6217,5428 6339,5460 6461,5492 6583,5522 6705,5552 6827,5581 6949,5609 7071,5637 7193,5663 7315,5689 7437,5715 7559,5740 7681,5764 7803,5788 7924,5811 8047,5834 8169,5857 8291,5879 8413,5900 8535,5921 8657,5942 8779,5962 8901,5982 9023,6002 9145,6021 9267,6040 9389,6059 9511,6077 9633,6095 9755,6113 9877,6130 9999,6147 10121,6164 10243,6181 10365,6197 10487,6213 10609,6229 10731,6245 10853,6260 10975,6275 11097,6290 11219,6305 11342,6320 11464,6334 11586,6348 11708,6362 11830,6376 11952,6390 12074,6404 12196,6417 12318,6430 12440,6443 12562,6456 12684,6469 12806,6481"
   id="path96" />
 <text
   class="TextShape"
   id="text104"><tspan
     class="TextParagraph"
     font-family="Liberation Sans, sans-serif"
     font-size="353px"
     font-weight="400"
     id="tspan102"><tspan
       class="TextPosition"
       x="2045"
       y="7266"
       id="tspan100"><tspan
         fill="rgb(0,0,0)"
         stroke="none"
         id="tspan98">0</tspan></tspan></tspan></text>

 <text
   class="TextShape"
   id="text112"><tspan
     class="TextParagraph"
     font-family="Liberation Sans, sans-serif"
     font-size="353px"
     font-weight="400"
     id="tspan110"><tspan
       class="TextPosition"
       x="4361"
       y="7266"
       id="tspan108"><tspan
         fill="rgb(0,0,0)"
         stroke="none"
         id="tspan106">50</tspan></tspan></tspan></text>

 <text
   class="TextShape"
   id="text120"><tspan
     class="TextParagraph"
     font-family="Liberation Sans, sans-serif"
     font-size="353px"
     font-weight="400"
     id="tspan118"><tspan
       class="TextPosition"
       x="6677"
       y="7266"
       id="tspan116"><tspan
         fill="rgb(0,0,0)"
         stroke="none"
         id="tspan114">100</tspan></tspan></tspan></text>

 <text
   class="TextShape"
   id="text128"><tspan
     class="TextParagraph"
     font-family="Liberation Sans, sans-serif"
     font-size="353px"
     font-weight="400"
     id="tspan126"><tspan
       class="TextPosition"
       x="9090"
       y="7266"
       id="tspan124"><tspan
         fill="rgb(0,0,0)"
         stroke="none"
         id="tspan122">150</tspan></tspan></tspan></text>

 <text
   class="TextShape"
   id="text136"><tspan
     class="TextParagraph"
     font-family="Liberation Sans, sans-serif"
     font-size="353px"
     font-weight="400"
     id="tspan134"><tspan
       class="TextPosition"
       x="11503"
       y="7266"
       id="tspan132"><tspan
         fill="rgb(0,0,0)"
         stroke="none"
         id="tspan130">200</tspan></tspan></tspan></text>

 <text
   class="TextShape"
   id="text144"><tspan
     class="TextParagraph"
     font-family="Liberation Sans, sans-serif"
     font-size="353px"
     font-weight="400"
     id="tspan142"><tspan
       class="TextPosition"
       x="13916"
       y="7266"
       id="tspan140"><tspan
         fill="rgb(0,0,0)"
         stroke="none"
         id="tspan138">250</tspan></tspan></tspan></text>

 <text
   class="TextShape"
   id="text152"><tspan
     class="TextParagraph"
     font-family="Liberation Sans, sans-serif"
     font-size="353px"
     font-weight="400"
     id="tspan150"><tspan
       class="TextPosition"
       x="1698"
       y="6823"
       id="tspan148"><tspan
         fill="rgb(0,0,0)"
         stroke="none"
         id="tspan146">1</tspan></tspan></tspan></text>

 <text
   class="TextShape"
   id="text160"><tspan
     class="TextParagraph"
     font-family="Liberation Sans, sans-serif"
     font-size="353px"
     font-weight="400"
     id="tspan158"><tspan
       class="TextPosition"
       x="1504"
       y="5917"
       id="tspan156"><tspan
         fill="rgb(0,0,0)"
         stroke="none"
         id="tspan154">10</tspan></tspan></tspan></text>

 <text
   class="TextShape"
   id="text168"><tspan
     class="TextParagraph"
     font-family="Liberation Sans, sans-serif"
     font-size="353px"
     font-weight="400"
     id="tspan166"><tspan
       class="TextPosition"
       x="1310"
       y="5012"
       id="tspan164"><tspan
         fill="rgb(0,0,0)"
         stroke="none"
         id="tspan162">100</tspan></tspan></tspan></text>

 <text
   class="TextShape"
   id="text176"><tspan
     class="TextParagraph"
     font-family="Liberation Sans, sans-serif"
     font-size="353px"
     font-weight="400"
     id="tspan174"><tspan
       class="TextPosition"
       x="1116"
       y="4107"
       id="tspan172"><tspan
         fill="rgb(0,0,0)"
         stroke="none"
         id="tspan170">1000</tspan></tspan></tspan></text>

 <text
   class="TextShape"
   id="text184"><tspan
     class="TextParagraph"
     font-family="Liberation Sans, sans-serif"
     font-size="353px"
     font-weight="400"
     id="tspan182"><tspan
       class="TextPosition"
       x="922"
       y="3202"
       id="tspan180"><tspan
         fill="rgb(0,0,0)"
         stroke="none"
         id="tspan178">10000</tspan></tspan></tspan></text>

 <text
   class="TextShape"
   id="text192"><tspan
     class="TextParagraph"
     font-family="Liberation Sans, sans-serif"
     font-size="353px"
     font-weight="400"
     id="tspan190"><tspan
       class="TextPosition"
       x="728"
       y="2297"
       id="tspan188"><tspan
         fill="rgb(0,0,0)"
         stroke="none"
         id="tspan186">100000</tspan></tspan></tspan></text>

 <text
   class="TextShape"
   id="text200"><tspan
     class="TextParagraph"
     font-family="Liberation Sans, sans-serif"
     font-size="353px"
     font-weight="400"
     id="tspan198"><tspan
       class="TextPosition"
       x="534"
       y="1392"
       id="tspan196"><tspan
         fill="rgb(0,0,0)"
         stroke="none"
         id="tspan194">1000000</tspan></tspan></tspan></text>

 <text
   class="TextShape"
   id="text208"><tspan
     class="TextParagraph"
     font-family="Liberation Sans, sans-serif"
     font-size="353px"
     font-weight="400"
     id="tspan206"><tspan
       class="TextPosition"
       x="340"
       y="486"
       id="tspan204"><tspan
         fill="rgb(0,0,0)"
         stroke="none"
         id="tspan202">10000000</tspan></tspan></tspan></text>

 <text
   class="TextShape"
   id="text216"
   x="3677.7083"
   y="3624.7915"><tspan
     class="TextParagraph"
     font-size="353px"
     font-weight="400"
     id="tspan214"
     style="font-weight:400;font-size:353px;font-family:'Liberation Sans', sans-serif"><tspan
       class="TextPosition"
       x="10521.708"
       y="4530.792"
       id="tspan212"><tspan
         id="tspan210"
         style="fill:#000000;stroke:none">f(x) = 5.87e+6 x^-2.79</tspan></tspan></tspan></text>

 <text
   class="TextShape"
   id="text224"><tspan
     class="TextParagraph"
     font-family="Liberation Sans, sans-serif"
     font-size="318px"
     font-weight="400"
     id="tspan222"><tspan
       class="TextPosition"
       x="6404"
       y="7886"
       id="tspan220"><tspan
         fill="rgb(0,0,0)"
         stroke="none"
         id="tspan218">Position in string (from start)</tspan></tspan></tspan></text>

 <text
   class="TextShape"
   transform="translate(828,4653) rotate(-90) translate(-828,-4653)"
   id="text232"><tspan
     class="TextParagraph"
     font-family="Liberation Sans, sans-serif"
     font-size="318px"
     font-weight="400"
     id="tspan230"><tspan
       class="TextPosition"
       x="828"
       y="4653"
       id="tspan228"><tspan
         fill="rgb(0,0,0)"
         stroke="none"
         id="tspan226">Occurrences</tspan></tspan></tspan></text>

</svg>